<svg width="23" height="21" viewBox="0 0 23 21" fill="none" xmlns="http://www.w3.org/2000/svg">
<path d="M-0.000236185 10.9117C-0.00946509 11.442 0.192366 11.9543 0.560856 12.3359C0.929346 12.7174 1.43431 12.9369 1.96466 12.9462L8.28371 13.0561L7.24434 17.6087C7.2226 17.7084 7.21069 17.8182 7.20878 17.9282C7.20164 18.3381 7.36501 18.721 7.63027 18.9957L8.67184 20.0639L15.3653 13.5994C15.7417 13.2359 15.9704 12.7398 15.9799 12.1899L16.1539 2.19142C16.1632 1.66107 15.9613 1.14877 15.5928 0.767232C15.2243 0.38569 14.7194 0.166157 14.189 0.156928L5.19039 0.000338839C4.36052 -0.0141022 3.64193 0.473469 3.32945 1.18814L0.187241 8.18453C0.0932525 8.41293 0.0390851 8.65202 0.0345614 8.91198L-0.000236185 10.9117ZM22.1878 0.296119L18.1884 0.226523L17.9796 12.2247L21.979 12.2943L22.1878 0.296119Z" fill="white"/>
</svg>
