<svg width="52" height="24" viewBox="0 0 52 24" fill="none" xmlns="http://www.w3.org/2000/svg">
<path d="M22 9C22 8.46957 21.7893 7.96086 21.4142 7.58579C21.0391 7.21071 20.5304 7 20 7H13.68L14.64 2.43C14.66 2.33 14.67 2.22 14.67 2.11C14.67 1.7 14.5 1.32 14.23 1.05L13.17 0L6.59 6.58C6.22 6.95 6 7.45 6 8V18C6 18.5304 6.21071 19.0391 6.58579 19.4142C6.96086 19.7893 7.46957 20 8 20H17C17.83 20 18.54 19.5 18.84 18.78L21.86 11.73C21.95 11.5 22 11.26 22 11V9ZM0 20H4V8H0V20Z" fill="white"/>
<path d="M29.156 13.9982C29.1468 14.5286 29.3486 15.0409 29.7171 15.4224C30.0856 15.804 30.5906 16.0235 31.1209 16.0327L37.44 16.1427L36.4006 20.6953C36.3789 20.7949 36.3669 20.9047 36.365 21.0147C36.3579 21.4247 36.5213 21.8076 36.7865 22.0822L37.8281 23.1505L44.5216 16.686C44.898 16.3225 45.1266 15.8264 45.1362 15.2765L45.3102 5.27797C45.3194 4.74762 45.1176 4.23532 44.7491 3.85378C44.3806 3.47224 43.8756 3.2527 43.3453 3.24348L34.3466 3.08689C33.5168 3.07245 32.7982 3.56002 32.4857 4.27469L29.3435 11.2711C29.2495 11.4995 29.1953 11.7386 29.1908 11.9985L29.156 13.9982ZM51.3441 3.38267L47.3447 3.31307L47.1359 15.3113L51.1353 15.3808L51.3441 3.38267Z" fill="white"/>
</svg>
