<svg width="22" height="20" viewBox="0 0 22 20" fill="none" xmlns="http://www.w3.org/2000/svg">
<path d="M20.5232 19L14.0155 13M1 8C1 8.91925 1.19638 9.82951 1.57793 10.6788C1.95949 11.5281 2.51873 12.2997 3.22375 12.9497C3.92877 13.5998 4.76574 14.1154 5.68689 14.4672C6.60803 14.8189 7.59531 15 8.59236 15C9.5894 15 10.5767 14.8189 11.4978 14.4672C12.419 14.1154 13.2559 13.5998 13.961 12.9497C14.666 12.2997 15.2252 11.5281 15.6068 10.6788C15.9883 9.82951 16.1847 8.91925 16.1847 8C16.1847 7.08075 15.9883 6.1705 15.6068 5.32122C15.2252 4.47194 14.666 3.70026 13.961 3.05025C13.2559 2.40024 12.419 1.88463 11.4978 1.53284C10.5767 1.18106 9.5894 1 8.59236 1C7.59531 1 6.60803 1.18106 5.68689 1.53284C4.76574 1.88463 3.92877 2.40024 3.22375 3.05025C2.51873 3.70026 1.95949 4.47194 1.57793 5.32122C1.19638 6.1705 1 7.08075 1 8Z" stroke="black" stroke-width="2" stroke-linecap="round" stroke-linejoin="round"/>
</svg>
