<svg width="48" height="48" viewBox="0 0 48 48" fill="none" xmlns="http://www.w3.org/2000/svg">
<path d="M24.3132 12.3428C25.7681 12.3428 27.1634 12.9207 28.1922 13.9495C29.221 14.9783 29.7989 16.3736 29.7989 17.8285C29.7989 19.2834 29.221 20.6787 28.1922 21.7075C27.1634 22.7362 25.7681 23.3142 24.3132 23.3142C22.8583 23.3142 21.463 22.7362 20.4342 21.7075C19.4055 20.6787 18.8275 19.2834 18.8275 17.8285C18.8275 16.3736 19.4055 14.9783 20.4342 13.9495C21.463 12.9207 22.8583 12.3428 24.3132 12.3428ZM24.3132 15.0856C23.5858 15.0856 22.8881 15.3746 22.3737 15.889C21.8593 16.4034 21.5704 17.101 21.5704 17.8285C21.5704 18.5559 21.8593 19.2536 22.3737 19.768C22.8881 20.2824 23.5858 20.5713 24.3132 20.5713C25.0407 20.5713 25.7383 20.2824 26.2527 19.768C26.7671 19.2536 27.0561 18.5559 27.0561 17.8285C27.0561 17.101 26.7671 16.4034 26.2527 15.889C25.7383 15.3746 25.0407 15.0856 24.3132 15.0856ZM24.3132 24.6856C27.9749 24.6856 35.2847 26.5096 35.2847 30.1713V34.2856H13.3418V30.1713C13.3418 26.5096 20.6515 24.6856 24.3132 24.6856ZM24.3132 27.2913C20.2401 27.2913 15.9475 29.2936 15.9475 30.1713V31.6799H32.6789V30.1713C32.6789 29.2936 28.3864 27.2913 24.3132 27.2913Z" fill="white"/>
<circle cx="24" cy="24" r="23.3143" stroke="white" stroke-width="1.37143"/>
</svg>
