<svg width="127" height="27" viewBox="0 0 127 27" fill="none" xmlns="http://www.w3.org/2000/svg">
<path d="M112.757 17.5501L118.917 13.5L112.757 9.45005V17.5501ZM126.478 6.97955C126.632 7.61405 126.739 8.46455 126.81 9.54455C126.893 10.6245 126.929 11.556 126.929 12.366L127 13.5C127 16.4566 126.81 18.6301 126.478 20.0206C126.181 21.2355 125.493 22.0186 124.424 22.3561C123.866 22.5315 122.846 22.6531 121.279 22.7341C119.736 22.8286 118.324 22.8691 117.018 22.8691L115.131 22.9501C110.158 22.9501 107.06 22.7341 105.837 22.3561C104.769 22.0186 104.081 21.2355 103.784 20.0206C103.63 19.3861 103.523 18.5356 103.452 17.4556C103.369 16.3756 103.333 15.444 103.333 14.6341L103.262 13.5C103.262 10.5435 103.452 8.37005 103.784 6.97955C104.081 5.76455 104.769 4.98155 105.837 4.64405C106.395 4.46855 107.416 4.34705 108.983 4.26605C110.526 4.17155 111.938 4.13105 113.244 4.13105L115.131 4.05005C120.104 4.05005 123.202 4.26605 124.424 4.64405C125.493 4.98155 126.181 5.76455 126.478 6.97955Z" fill="white"/>
<path d="M84.7945 5.1571C83.9833 4.10346 83.5362 2.75059 83.5363 1.3501H79.8688V18.0901C79.8411 18.9962 79.505 19.8547 78.9315 20.4843C78.358 21.114 77.5918 21.4656 76.7947 21.4651C75.1093 21.4651 73.7087 19.8991 73.7087 17.9551C73.7087 15.6331 75.679 13.8916 77.7086 14.6071V10.3411C73.6138 9.7201 70.0293 13.3381 70.0293 17.9551C70.0293 22.4506 73.3052 25.6501 76.7828 25.6501C80.5097 25.6501 83.5363 22.2076 83.5363 17.9551V9.4636C85.0235 10.6784 86.8091 11.3302 88.6401 11.3266V7.1551C88.6401 7.1551 86.4087 7.2766 84.7945 5.1571Z" fill="white"/>
<path d="M6.88408 0H16.8541C20.6522 0 23.7382 3.51 23.7382 7.83V19.17C23.7382 21.2466 23.0129 23.2382 21.7219 24.7066C20.4309 26.1751 18.6799 27 16.8541 27H6.88408C3.08597 27 0 23.49 0 19.17V7.83C0 5.75336 0.725285 3.76176 2.0163 2.29335C3.30732 0.824944 5.05831 0 6.88408 0ZM6.6467 2.7C5.51346 2.7 4.42664 3.21203 3.62532 4.12346C2.824 5.03489 2.37382 6.27105 2.37382 7.56V19.44C2.37382 22.1265 4.28475 24.3 6.6467 24.3H17.0915C18.2248 24.3 19.3116 23.788 20.1129 22.8765C20.9142 21.9651 21.3644 20.729 21.3644 19.44V7.56C21.3644 4.8735 19.4535 2.7 17.0915 2.7H6.6467ZM18.1004 4.725C18.4939 4.725 18.8712 4.90279 19.1495 5.21926C19.4277 5.53573 19.584 5.96495 19.584 6.4125C19.584 6.86005 19.4277 7.28927 19.1495 7.60574C18.8712 7.92221 18.4939 8.1 18.1004 8.1C17.7069 8.1 17.3295 7.92221 17.0513 7.60574C16.7731 7.28927 16.6167 6.86005 16.6167 6.4125C16.6167 5.96495 16.7731 5.53573 17.0513 5.21926C17.3295 4.90279 17.7069 4.725 18.1004 4.725ZM11.8691 6.75C13.443 6.75 14.9525 7.46116 16.0655 8.72703C17.1784 9.9929 17.8037 11.7098 17.8037 13.5C17.8037 15.2902 17.1784 17.0071 16.0655 18.273C14.9525 19.5388 13.443 20.25 11.8691 20.25C10.2952 20.25 8.78569 19.5388 7.67274 18.273C6.5598 17.0071 5.93455 15.2902 5.93455 13.5C5.93455 11.7098 6.5598 9.9929 7.67274 8.72703C8.78569 7.46116 10.2952 6.75 11.8691 6.75ZM11.8691 9.45C10.9247 9.45 10.0191 9.87669 9.35129 10.6362C8.68352 11.3957 8.30837 12.4259 8.30837 13.5C8.30837 14.5741 8.68352 15.6043 9.35129 16.3638C10.0191 17.1233 10.9247 17.55 11.8691 17.55C12.8135 17.55 13.7192 17.1233 14.3869 16.3638C15.0547 15.6043 15.4298 14.5741 15.4298 13.5C15.4298 12.4259 15.0547 11.3957 14.3869 10.6362C13.7192 9.87669 12.8135 9.45 11.8691 9.45Z" fill="white"/>
<path d="M48.5755 11.846L55.2029 2.69995H53.6321L47.8791 10.641L43.2819 2.69995H37.9805L44.9312 14.7096L37.9805 24.2999H39.5513L45.6276 15.913L50.4827 24.2999H55.7841L48.5755 11.846ZM46.4248 14.8145L45.7206 13.6187L40.1168 4.10395H42.5292L47.0505 11.7828L47.7547 12.9785L53.6334 22.9608H51.221L46.4248 14.8145Z" fill="white"/>
</svg>
