<svg width="95" height="15" viewBox="0 0 95 15" fill="none" xmlns="http://www.w3.org/2000/svg">
<path d="M2.86875 15L4.0875 9.45395L0 5.72368L5.4 5.23026L7.5 0L9.6 5.23026L15 5.72368L10.9125 9.45395L12.1312 15L7.5 12.0592L2.86875 15Z" fill="white"/>
<path d="M62.8687 15L64.0875 9.45395L60 5.72368L65.4 5.23026L67.5 0L69.6 5.23026L75 5.72368L70.9125 9.45395L72.1312 15L67.5 12.0592L62.8687 15Z" fill="white"/>
<path d="M82.8687 15L84.0875 9.45395L80 5.72368L85.4 5.23026L87.5 0L89.6 5.23026L95 5.72368L90.9125 9.45395L92.1312 15L87.5 12.0592L82.8687 15Z" fill="white"/>
<path d="M42.8687 15L44.0875 9.45395L40 5.72368L45.4 5.23026L47.5 0L49.6 5.23026L55 5.72368L50.9125 9.45395L52.1312 15L47.5 12.0592L42.8687 15Z" fill="white"/>
<path d="M22.8687 15L24.0875 9.45395L20 5.72368L25.4 5.23026L27.5 0L29.6 5.23026L35 5.72368L30.9125 9.45395L32.1312 15L27.5 12.0592L22.8687 15Z" fill="white"/>
</svg>
