<svg width="24" height="19" viewBox="0 0 24 19" fill="none" xmlns="http://www.w3.org/2000/svg">
<path d="M9.49528 13.5L15.6553 9.45L9.49528 5.4V13.5ZM23.216 2.9295C23.3703 3.564 23.4771 4.4145 23.5483 5.4945C23.6314 6.5745 23.667 7.506 23.667 8.316L23.7382 9.45C23.7382 12.4065 23.5483 14.58 23.216 15.9705C22.9192 17.1855 22.2308 17.9685 21.1626 18.306C20.6048 18.4815 19.584 18.603 18.0173 18.684C16.4743 18.7785 15.0619 18.819 13.7563 18.819L11.8691 18.9C6.89595 18.9 3.79811 18.684 2.5756 18.306C1.50738 17.9685 0.818968 17.1855 0.522241 15.9705C0.367942 15.336 0.26112 14.4855 0.189906 13.4055C0.106822 12.3255 0.0712146 11.394 0.0712146 10.584L0 9.45C0 6.4935 0.189906 4.32 0.522241 2.9295C0.818968 1.7145 1.50738 0.9315 2.5756 0.594C3.13344 0.4185 4.15419 0.297 5.72091 0.216C7.26389 0.1215 8.67632 0.0809999 9.98192 0.0809999L11.8691 0C16.8423 0 19.9401 0.216 21.1626 0.594C22.2308 0.9315 22.9192 1.7145 23.216 2.9295Z" fill="white"/>
</svg>
