<svg width="19" height="25" viewBox="0 0 19 25" fill="none" xmlns="http://www.w3.org/2000/svg">
<path d="M14.7652 3.807C13.954 2.75336 13.5069 1.40049 13.507 0H9.83949V16.74C9.81179 17.6461 9.47573 18.5046 8.90219 19.1342C8.32866 19.7639 7.56252 20.1155 6.76539 20.115C5.07998 20.115 3.67942 18.549 3.67942 16.605C3.67942 14.283 5.64969 12.5415 7.67931 13.257V8.991C3.58447 8.37 0 11.988 0 16.605C0 21.1005 3.27587 24.3 6.75352 24.3C10.4804 24.3 13.507 20.8575 13.507 16.605V8.1135C14.9942 9.3283 16.7798 9.98007 18.6108 9.9765V5.805C18.6108 5.805 16.3794 5.9265 14.7652 3.807Z" fill="white"/>
</svg>
